# xmcd
#
# Track frame offsets:
# 150
# 40876
# 68704
# 77084
# 105113
# 115752
# 149325
# 162836
# 214383
# 220526
# 260066
# 286087
# 291904
# 307115
# 325722
#
# Disc length: 4451 seconds
#
# Revision: 0
# Processed by: cddbd v1.5.2PL0 Copyright (c) Steve Scherf et al.
# Submitted via: Audion 3.0.2 (http://www.panic.com/audion/)
#
DISCID=da11610f
DTITLE=df - Adiemus 2
DYEAR=1900
DGENRE=
TTITLE0=a
TTITLE1=s
TTITLE2=d
TTITLE3=f
TTITLE4=h
TTITLE5=k
TTITLE6=l
TTITLE7=ä
TTITLE8=q
TTITLE9=w
TTITLE10=e
TTITLE11=r
TTITLE12=t
TTITLE13=z
TTITLE14=u
EXTD=
EXTT0=
EXTT1=
EXTT2=
EXTT3=
EXTT4=
EXTT5=
EXTT6=
EXTT7=
EXTT8=
EXTT9=
EXTT10=
EXTT11=
EXTT12=
EXTT13=
EXTT14=
PLAYORDER=
